<svg width="99" height="84" viewBox="0 0 99 84" fill="none" xmlns="http://www.w3.org/2000/svg">
<path d="M41.97 76.6336C42.2448 76.8387 42.3019 76.9659 42.3129 77C42.3019 77.0341 42.2448 77.1613 41.97 77.3664C41.6142 77.6321 41.0358 77.9137 40.2312 78.1677C38.6337 78.6722 36.365 79 33.8148 79C31.2647 79 28.9959 78.6722 27.3984 78.1677C26.5938 77.9137 26.0154 77.6321 25.6596 77.3664C25.3848 77.1613 25.3277 77.0341 25.3167 77C25.3277 76.9659 25.3848 76.8387 25.6596 76.6336C26.0154 76.3679 26.5938 76.0863 27.3984 75.8323C28.9959 75.3278 31.2647 75 33.8148 75C36.365 75 38.6337 75.3278 40.2312 75.8323C41.0358 76.0863 41.6142 76.3679 41.97 76.6336Z" fill="#CBC52B" stroke="black" stroke-width="2"/>
<path d="M73.97 76.6336C74.2448 76.8387 74.3019 76.9659 74.3129 77C74.3019 77.0341 74.2448 77.1613 73.97 77.3664C73.6142 77.6321 73.0358 77.9137 72.2312 78.1677C70.6337 78.6722 68.365 79 65.8148 79C63.2647 79 60.9959 78.6722 59.3984 78.1677C58.5938 77.9137 58.0154 77.6321 57.6596 77.3664C57.3848 77.1613 57.3277 77.0341 57.3167 77C57.3277 76.9659 57.3848 76.8387 57.6596 76.6336C58.0154 76.3679 58.5938 76.0863 59.3984 75.8323C60.9959 75.3278 63.2647 75 65.8148 75C68.365 75 70.6337 75.3278 72.2312 75.8323C73.0358 76.0863 73.6142 76.3679 73.97 76.6336Z" fill="#CBC52B" stroke="black" stroke-width="2"/>
<path d="M14.1707 49.9653C13.2574 53.6428 11.7817 56.7116 10.2187 58.7054C9.43568 59.7043 8.68973 60.3582 8.05709 60.7145C7.4372 61.0636 7.03562 61.073 6.79046 61.0121C6.54529 60.9512 6.19478 60.755 5.81026 60.1565C5.41783 59.5456 5.06449 58.6186 4.83978 57.3695C4.39125 54.8761 4.52277 51.4734 5.4361 47.796C6.34943 44.1186 7.82514 41.0498 9.38813 39.056C10.1712 38.0571 10.9171 37.4032 11.5498 37.0469C12.1696 36.6977 12.5712 36.6883 12.8164 36.7492C13.0616 36.8101 13.4121 37.0063 13.7966 37.6049C14.189 38.2158 14.5424 39.1427 14.7671 40.3919C15.2156 42.8853 15.0841 46.2879 14.1707 49.9653Z" fill="#373636" stroke="black" stroke-width="4"/>
<path d="M92.6929 47.5235C93.6736 51.1836 93.8676 54.5832 93.4649 57.0844C93.2632 58.3375 92.9269 59.2708 92.5458 59.8888C92.1723 60.4943 91.8255 60.6969 91.5815 60.7623C91.3374 60.8277 90.9358 60.8256 90.3096 60.488C89.6705 60.1433 88.9127 59.5032 88.1114 58.5189C86.5121 56.5541 84.9803 53.513 83.9995 49.8529C83.0188 46.1929 82.8249 42.7932 83.2275 40.292C83.4293 39.0389 83.7655 38.1057 84.1467 37.4877C84.5201 36.8821 84.867 36.6795 85.111 36.6142C85.355 36.5488 85.7567 36.5508 86.3829 36.8885C87.0219 37.2331 87.7798 37.8732 88.581 38.8575C90.1804 40.8223 91.7122 43.8635 92.6929 47.5235Z" fill="#373636" stroke="black" stroke-width="4"/>
<circle cx="50.3148" cy="42" r="36" fill="#292727" stroke="black" stroke-width="4"/>
<mask id="path-6-inside-1_56_231" fill="white">
<path d="M88.3148 42C88.3148 46.9902 87.3319 51.9316 85.4222 56.542C83.5126 61.1523 80.7135 65.3414 77.1849 68.8701C73.6562 72.3987 69.4672 75.1977 64.8568 77.1074C60.2464 79.0171 55.305 80 50.3148 80C45.3246 80 40.3832 79.0171 35.7728 77.1074C31.1625 75.1977 26.9734 72.3987 23.4448 68.8701C19.9161 65.3414 17.1171 61.1523 15.2074 56.542C13.2977 51.9316 12.3148 46.9902 12.3148 42L50.3148 42H88.3148Z"/>
</mask>
<path d="M88.3148 42C88.3148 46.9902 87.3319 51.9316 85.4222 56.542C83.5126 61.1523 80.7135 65.3414 77.1849 68.8701C73.6562 72.3987 69.4672 75.1977 64.8568 77.1074C60.2464 79.0171 55.305 80 50.3148 80C45.3246 80 40.3832 79.0171 35.7728 77.1074C31.1625 75.1977 26.9734 72.3987 23.4448 68.8701C19.9161 65.3414 17.1171 61.1523 15.2074 56.542C13.2977 51.9316 12.3148 46.9902 12.3148 42L50.3148 42H88.3148Z" fill="#D9D9D9" stroke="black" stroke-width="8" mask="url(#path-6-inside-1_56_231)"/>
<path d="M71.2624 20.9826C75.4123 25.1325 78.2385 30.4199 79.3834 36.176C80.5284 41.9322 79.9408 47.8986 77.6948 53.3207C75.4489 58.7429 71.6455 63.3773 66.7657 66.6379C61.8859 69.8985 56.1488 71.6388 50.2799 71.6388C44.4109 71.6388 38.6738 69.8985 33.794 66.6379C28.9142 63.3773 25.1108 58.7429 22.8649 53.3207C20.6189 47.8986 20.0313 41.9322 21.1763 36.176C22.3212 30.4199 25.1474 25.1325 29.2973 20.9826L50.2799 41.9651L71.2624 20.9826Z" fill="#D9D9D9"/>
<circle cx="49.8148" cy="42.5" r="6.5" fill="#CBC52B"/>
<circle cx="30.3148" cy="33" r="3" fill="black"/>
<circle cx="71.3148" cy="33" r="3" fill="black"/>
</svg>
