<svg viewBox="0 0 242 242" fill="none" xmlns="http://www.w3.org/2000/svg">
<circle cx="121" cy="121" r="119" fill="#B2FFB0" stroke="#A7D990" stroke-width="4"/>
<rect width="100" height="70" transform="matrix(0.866025 0.5 -0.866025 0.5 109.622 37)" fill="#4974D2"/>
<rect width="100" height="80" transform="matrix(0.866025 0.5 0 1 49 72)" fill="#457DD4"/>
<rect width="70" height="80" transform="matrix(0.866025 -0.5 0 1 135.603 122)" fill="#31539D"/>
<path d="M63.09 104.277L66.8645 96.4079L69.5233 97.6832C70.138 97.9781 70.5923 98.3252 70.886 98.7244C71.1809 99.1211 71.3359 99.5468 71.351 100.001C71.3661 100.456 71.2625 100.915 71.0401 101.379C70.8177 101.842 70.5257 102.208 70.1641 102.476C69.8026 102.744 69.3767 102.886 68.8865 102.903C68.3975 102.917 67.8482 102.778 67.2386 102.486L65.087 101.454L65.4998 100.593L67.6207 101.61C68.0408 101.812 68.4084 101.912 68.7235 101.912C69.0412 101.914 69.3117 101.829 69.5351 101.659C69.7623 101.487 69.9514 101.244 70.1026 100.929C70.2537 100.614 70.3269 100.31 70.3221 100.018C70.3173 99.7261 70.2162 99.454 70.019 99.2018C69.8229 98.9471 69.5123 98.7177 69.0871 98.5138L67.4119 97.7102L64.0429 104.734L63.09 104.277ZM68.4895 102.519L68.7304 106.982L67.6238 106.451L67.4136 102.003L68.4895 102.519ZM72.2399 108.817C71.6712 108.544 71.2409 108.183 70.9489 107.734C70.6607 107.284 70.5139 106.779 70.5086 106.219C70.507 105.657 70.6512 105.074 70.9411 104.47C71.2311 103.865 71.5968 103.385 72.0382 103.03C72.4835 102.673 72.9667 102.461 73.4878 102.392C74.0127 102.323 74.5415 102.416 75.0743 102.671C75.3817 102.819 75.6607 103.015 75.9112 103.262C76.1618 103.508 76.3547 103.805 76.49 104.154C76.6266 104.5 76.6775 104.896 76.6429 105.342C76.6083 105.789 76.4589 106.288 76.1948 106.838L76.0105 107.223L71.4613 105.041L71.8373 104.257L75.4643 105.997C75.624 105.664 75.7 105.334 75.6921 105.009C75.6868 104.685 75.5987 104.389 75.4278 104.122C75.2596 103.855 75.0115 103.643 74.6836 103.486C74.3224 103.313 73.9669 103.252 73.6171 103.305C73.2711 103.356 72.9594 103.491 72.6821 103.707C72.4049 103.924 72.1882 104.195 72.0322 104.52L71.7815 105.043C71.5677 105.489 71.4634 105.903 71.4684 106.287C71.4772 106.669 71.5812 107.007 71.7804 107.302C71.9809 107.593 72.2643 107.827 72.6306 108.002C72.8688 108.117 73.0999 108.187 73.324 108.212C73.5518 108.236 73.7688 108.214 73.9748 108.146C74.182 108.075 74.3732 107.956 74.5483 107.788L75.3064 108.454C75.0716 108.707 74.7913 108.894 74.4655 109.015C74.1409 109.133 73.7884 109.178 73.408 109.15C73.0288 109.12 72.6395 109.009 72.2399 108.817ZM78.4604 111.801C77.9071 111.535 77.4934 111.176 77.2191 110.723C76.9448 110.27 76.8101 109.763 76.8148 109.201C76.8196 108.639 76.9633 108.064 77.2459 107.475C77.5334 106.876 77.8972 106.399 78.3375 106.047C78.7815 105.692 79.264 105.481 79.7852 105.413C80.3101 105.343 80.8389 105.436 81.3717 105.692C81.7867 105.891 82.1238 106.147 82.3831 106.461C82.6423 106.774 82.8119 107.12 82.8918 107.499C82.9717 107.877 82.9488 108.263 82.8231 108.657L81.9164 108.222C81.9762 107.92 81.9368 107.608 81.7981 107.286C81.6632 106.963 81.396 106.705 80.9964 106.514C80.6429 106.344 80.2887 106.288 79.9339 106.344C79.5828 106.4 79.2531 106.558 78.9448 106.82C78.6403 107.08 78.3812 107.433 78.1674 107.879C77.9487 108.335 77.83 108.767 77.8112 109.173C77.795 109.582 77.874 109.942 78.0482 110.256C78.2249 110.571 78.4925 110.814 78.8511 110.986C79.0868 111.099 79.3203 111.161 79.5517 111.171C79.7832 111.181 80.0023 111.141 80.2093 111.052C80.4162 110.962 80.5994 110.823 80.759 110.635L81.6657 111.07C81.4474 111.393 81.1701 111.646 80.8338 111.828C80.5013 112.009 80.1306 112.102 79.7215 112.108C79.3162 112.112 78.8959 112.01 78.4604 111.801ZM81.6881 115.92C81.5344 115.846 81.4035 115.768 81.2954 115.684C81.1861 115.604 81.1139 115.541 81.0788 115.495L81.6927 114.807C81.886 114.969 82.0708 115.083 82.2472 115.148C82.4237 115.214 82.6098 115.21 82.8055 115.137C83.0026 115.068 83.2281 114.91 83.482 114.663L83.8722 114.283L84.5354 107.304L85.519 107.776L84.8923 113.26L84.9538 113.29L88.8387 109.368L89.8223 109.84L84.0735 115.401C83.8146 115.651 83.554 115.837 83.2916 115.957C83.0281 116.079 82.7628 116.136 82.4958 116.128C82.2314 116.121 81.9622 116.051 81.6881 115.92ZM90.3155 117.487C89.7623 117.222 89.3485 116.863 89.0742 116.41C88.8 115.957 88.6652 115.449 88.67 114.888C88.6747 114.326 88.8184 113.751 89.101 113.161C89.3885 112.562 89.7524 112.086 90.1926 111.733C90.6366 111.379 91.1192 111.168 91.6403 111.1C92.1652 111.03 92.6941 111.123 93.2269 111.378C93.6418 111.577 93.9789 111.834 94.2382 112.147C94.4975 112.461 94.6671 112.807 94.747 113.185C94.8269 113.564 94.804 113.95 94.6783 114.343L93.7715 113.908C93.8314 113.606 93.7919 113.294 93.6533 112.972C93.5183 112.649 93.2511 112.392 92.8515 112.2C92.498 112.031 92.1439 111.974 91.789 112.031C91.4379 112.086 91.1083 112.245 90.8 112.507C90.4955 112.767 90.2363 113.12 90.0225 113.566C89.8038 114.022 89.6851 114.453 89.6664 114.86C89.6502 115.268 89.7292 115.629 89.9033 115.943C90.08 116.257 90.3477 116.501 90.7063 116.673C90.9419 116.786 91.1755 116.847 91.4069 116.858C91.6383 116.868 91.8575 116.828 92.0644 116.738C92.2713 116.648 92.4546 116.509 92.6141 116.321L93.5209 116.756C93.3026 117.08 93.0252 117.333 92.689 117.515C92.3565 117.696 91.9857 117.789 91.5766 117.794C91.1714 117.799 90.751 117.696 90.3155 117.487ZM98.702 111.679L94.9275 119.548L94.0208 119.113L97.7952 111.244L98.702 111.679ZM99.0037 121.655C98.4351 121.382 98.0048 121.021 97.7128 120.572C97.4246 120.122 97.2778 119.617 97.2724 119.057C97.2708 118.495 97.415 117.912 97.705 117.307C97.995 116.703 98.3607 116.223 98.8021 115.868C99.2474 115.511 99.7305 115.298 100.252 115.23C100.777 115.161 101.305 115.254 101.838 115.509C102.146 115.657 102.425 115.853 102.675 116.1C102.926 116.346 103.119 116.643 103.254 116.992C103.39 117.338 103.441 117.734 103.407 118.18C103.372 118.627 103.223 119.126 102.959 119.676L102.774 120.06L98.2252 117.878L98.6011 117.095L102.228 118.834C102.388 118.501 102.464 118.172 102.456 117.847C102.451 117.523 102.363 117.227 102.192 116.959C102.023 116.693 101.775 116.481 101.447 116.324C101.086 116.15 100.731 116.09 100.381 116.143C100.035 116.194 99.7233 116.328 99.446 116.545C99.1688 116.762 98.9521 117.033 98.7961 117.358L98.5454 117.881C98.3316 118.326 98.2272 118.741 98.2323 119.125C98.2411 119.507 98.3451 119.845 98.5443 120.139C98.7448 120.431 99.0282 120.664 99.3945 120.84C99.6327 120.954 99.8638 121.024 100.088 121.05C100.316 121.074 100.533 121.052 100.739 120.984C100.946 120.913 101.137 120.794 101.312 120.626L102.07 121.292C101.836 121.545 101.555 121.732 101.229 121.853C100.905 121.971 100.552 122.016 100.172 121.988C99.7927 121.958 99.4033 121.846 99.0037 121.655ZM109.826 117.015L110.963 117.561L110.505 125.375L110.597 125.42L116.404 120.171L117.541 120.716L113.767 128.585L112.875 128.157L115.743 122.179L115.666 122.142L110.34 126.941L109.479 126.528L109.888 119.37L109.811 119.333L106.943 125.312L106.052 124.884L109.826 117.015ZM117.97 130.752C117.401 130.479 116.971 130.119 116.679 129.67C116.391 129.22 116.244 128.714 116.239 128.154C116.237 127.593 116.381 127.009 116.671 126.405C116.961 125.8 117.327 125.321 117.768 124.965C118.213 124.608 118.697 124.396 119.218 124.328C119.743 124.258 120.272 124.351 120.804 124.607C121.112 124.754 121.391 124.951 121.641 125.197C121.892 125.443 122.085 125.741 122.22 126.089C122.357 126.435 122.408 126.831 122.373 127.278C122.338 127.724 122.189 128.223 121.925 128.774L121.74 129.158L117.191 126.976L117.567 126.192L121.194 127.932C121.354 127.599 121.43 127.27 121.422 126.945C121.417 126.621 121.329 126.325 121.158 126.057C120.99 125.79 120.741 125.578 120.414 125.421C120.052 125.248 119.697 125.188 119.347 125.24C119.001 125.292 118.689 125.426 118.412 125.643C118.135 125.859 117.918 126.13 117.762 126.456L117.512 126.978C117.298 127.424 117.193 127.839 117.198 128.222C117.207 128.605 117.311 128.943 117.51 129.237C117.711 129.528 117.994 129.762 118.361 129.938C118.599 130.052 118.83 130.122 119.054 130.147C119.282 130.172 119.499 130.15 119.705 130.081C119.912 130.011 120.103 129.891 120.278 129.723L121.036 130.389C120.802 130.642 120.521 130.829 120.195 130.95C119.871 131.069 119.518 131.114 119.138 131.086C118.759 131.055 118.369 130.944 117.97 130.752Z" fill="white"/>
<rect width="54.3388" height="38.0372" transform="matrix(0.866025 0.5 -0.866025 0.5 115.941 14)" fill="#4974D2"/>
<rect width="54.3388" height="43.4711" rx="2" transform="matrix(0.866025 0.5 0 1 83 33.0186)" fill="#5B5C60" stroke="#4F72EC"/>
<rect width="38.0372" height="43.4711" transform="matrix(0.866025 -0.5 0 1 130.059 60.188)" fill="#31539D"/>
</svg>
