<svg width="150" height="188" viewBox="0 0 150 188" fill="none" xmlns="http://www.w3.org/2000/svg">
<rect width="100" height="70" transform="matrix(0.866025 0.5 -0.866025 0.5 62.6218 23)" fill="#4974D2"/>
<rect width="100" height="80" transform="matrix(0.866025 0.5 0 1 2 58)" fill="#457DD4"/>
<rect width="70" height="80" transform="matrix(0.866025 -0.5 0 1 88.6025 108)" fill="#31539D"/>
<path d="M16.09 90.2767L19.8645 82.4079L22.5233 83.6832C23.138 83.9781 23.5923 84.3252 23.886 84.7244C24.1809 85.1211 24.3359 85.5468 24.351 86.0015C24.3661 86.4561 24.2625 86.9152 24.0401 87.3789C23.8177 87.8425 23.5257 88.2082 23.1641 88.4758C22.8026 88.7435 22.3767 88.8858 21.8865 88.9028C21.3975 88.9171 20.8482 88.7781 20.2386 88.4857L18.087 87.4536L18.4998 86.593L20.6207 87.6103C21.0408 87.8118 21.4084 87.9125 21.7235 87.9124C22.0412 87.9136 22.3117 87.8291 22.5351 87.6589C22.7623 87.4875 22.9514 87.2442 23.1026 86.9292C23.2537 86.6141 23.3269 86.3105 23.3221 86.0183C23.3173 85.7261 23.2162 85.454 23.019 85.2018C22.8229 84.9471 22.5123 84.7177 22.0871 84.5138L20.4119 83.7102L17.0429 90.7338L16.09 90.2767ZM21.4895 88.5185L21.7304 92.9822L20.6238 92.4515L20.4136 88.0025L21.4895 88.5185ZM25.2399 94.8169C24.6712 94.5441 24.2409 94.1833 23.9489 93.7345C23.6607 93.2843 23.5139 92.7791 23.5086 92.2188C23.507 91.6572 23.6512 91.0741 23.9411 90.4696C24.2311 89.8651 24.5968 89.3852 25.0382 89.0298C25.4835 88.673 25.9667 88.4605 26.4878 88.3923C27.0127 88.3227 27.5415 88.4157 28.0743 88.6712C28.3817 88.8187 28.6607 89.0155 28.9112 89.2617C29.1618 89.5079 29.3547 89.8053 29.49 90.1537C29.6266 90.4997 29.6775 90.8959 29.6429 91.3425C29.6083 91.7891 29.4589 92.2877 29.1948 92.8384L29.0105 93.2226L24.4613 91.0405L24.8373 90.2567L28.4643 91.9965C28.624 91.6635 28.7 91.3344 28.6921 91.0093C28.6868 90.6853 28.5987 90.3895 28.4278 90.1216C28.2596 89.855 28.0115 89.643 27.6836 89.4858C27.3224 89.3125 26.9669 89.2523 26.6171 89.305C26.2711 89.3564 25.9594 89.4905 25.6821 89.7073C25.4049 89.924 25.1882 90.1951 25.0322 90.5204L24.7815 91.0429C24.5677 91.4886 24.4634 91.9033 24.4684 92.2869C24.4772 92.6693 24.5812 93.0075 24.7804 93.3015C24.9809 93.593 25.2643 93.8266 25.6306 94.0023C25.8688 94.1166 26.0999 94.1865 26.324 94.2121C26.5518 94.2363 26.7688 94.2143 26.9748 94.1461C27.182 94.0754 27.3732 93.956 27.5483 93.7879L28.3064 94.454C28.0716 94.7069 27.7913 94.8939 27.4655 95.0148C27.1409 95.1332 26.7884 95.1784 26.408 95.1503C26.0288 95.1197 25.6395 95.0086 25.2399 94.8169ZM31.4604 97.8007C30.9071 97.5353 30.4934 97.1761 30.2191 96.7232C29.9448 96.2702 29.8101 95.7629 29.8148 95.2012C29.8196 94.6395 29.9633 94.0641 30.2459 93.4749C30.5334 92.8755 30.8972 92.3994 31.3375 92.0466C31.7815 91.6924 32.264 91.4812 32.7852 91.4129C33.3101 91.3433 33.8389 91.4363 34.3717 91.6919C34.7867 91.8909 35.1238 92.1472 35.3831 92.4606C35.6423 92.774 35.8119 93.12 35.8918 93.4986C35.9717 93.8772 35.9488 94.2633 35.8231 94.6567L34.9164 94.2217C34.9762 93.9196 34.9368 93.6077 34.7981 93.2859C34.6632 92.9629 34.396 92.7055 33.9964 92.5138C33.6429 92.3443 33.2887 92.2878 32.9339 92.3444C32.5828 92.3998 32.2531 92.5583 31.9448 92.82C31.6403 93.0804 31.3812 93.4334 31.1674 93.8791C30.9487 94.3351 30.83 94.7665 30.8112 95.1734C30.795 95.5816 30.874 95.9424 31.0482 96.256C31.2249 96.5707 31.4925 96.8141 31.8511 96.9861C32.0868 97.0992 32.3203 97.1608 32.5517 97.171C32.7832 97.1812 33.0023 97.1413 33.2093 97.0515C33.4162 96.9617 33.5994 96.8228 33.759 96.6347L34.6657 97.0696C34.4474 97.3934 34.1701 97.6463 33.8338 97.8285C33.5013 98.0093 33.1306 98.1024 32.7215 98.1078C32.3162 98.1119 31.8959 98.0096 31.4604 97.8007ZM34.6881 101.92C34.5344 101.846 34.4035 101.768 34.2954 101.684C34.1861 101.604 34.1139 101.541 34.0788 101.495L34.6927 100.807C34.886 100.969 35.0708 101.083 35.2472 101.148C35.4237 101.214 35.6098 101.21 35.8055 101.137C36.0026 101.068 36.2281 100.91 36.482 100.663L36.8722 100.283L37.5354 93.3039L38.519 93.7758L37.8923 99.26L37.9538 99.2895L41.8387 95.3681L42.8223 95.8399L37.0735 101.401C36.8146 101.651 36.554 101.837 36.2916 101.957C36.0281 102.079 35.7628 102.136 35.4958 102.128C35.2314 102.121 34.9622 102.051 34.6881 101.92ZM43.3155 103.487C42.7623 103.222 42.3485 102.863 42.0742 102.41C41.8 101.957 41.6652 101.449 41.67 100.888C41.6747 100.326 41.8184 99.7506 42.101 99.1615C42.3885 98.5621 42.7524 98.086 43.1926 97.7332C43.6366 97.379 44.1192 97.1678 44.6403 97.0995C45.1652 97.0299 45.6941 97.1229 46.2269 97.3784C46.6418 97.5775 46.9789 97.8337 47.2382 98.1471C47.4975 98.4606 47.6671 98.8066 47.747 99.1852C47.8269 99.5638 47.804 99.9498 47.6783 100.343L46.7715 99.9083C46.8314 99.6062 46.7919 99.2942 46.6533 98.9725C46.5183 98.6494 46.2511 98.392 45.8515 98.2004C45.498 98.0308 45.1439 97.9744 44.789 98.031C44.4379 98.0863 44.1083 98.2448 43.8 98.5066C43.4955 98.767 43.2363 99.12 43.0225 99.5657C42.8038 100.022 42.6851 100.453 42.6664 100.86C42.6502 101.268 42.7292 101.629 42.9033 101.943C43.08 102.257 43.3477 102.501 43.7063 102.673C43.9419 102.786 44.1755 102.847 44.4069 102.858C44.6383 102.868 44.8575 102.828 45.0644 102.738C45.2713 102.648 45.4546 102.509 45.6141 102.321L46.5209 102.756C46.3026 103.08 46.0252 103.333 45.689 103.515C45.3565 103.696 44.9857 103.789 44.5766 103.794C44.1714 103.799 43.751 103.696 43.3155 103.487ZM51.702 97.6794L47.9275 105.548L47.0208 105.113L50.7952 97.2445L51.702 97.6794ZM52.0037 107.655C51.4351 107.382 51.0048 107.021 50.7128 106.572C50.4246 106.122 50.2778 105.617 50.2724 105.057C50.2708 104.495 50.415 103.912 50.705 103.307C50.995 102.703 51.3607 102.223 51.8021 101.868C52.2474 101.511 52.7305 101.298 53.2517 101.23C53.7766 101.161 54.3054 101.254 54.8382 101.509C55.1456 101.657 55.4245 101.853 55.6751 102.1C55.9256 102.346 56.1186 102.643 56.2539 102.992C56.3904 103.338 56.4414 103.734 56.4068 104.18C56.3722 104.627 56.2228 105.126 55.9587 105.676L55.7744 106.06L51.2252 103.878L51.6011 103.095L55.2282 104.834C55.3879 104.501 55.4638 104.172 55.456 103.847C55.4507 103.523 55.3626 103.227 55.1917 102.959C55.0234 102.693 54.7754 102.481 54.4475 102.324C54.0863 102.15 53.7308 102.09 53.381 102.143C53.0349 102.194 52.7233 102.328 52.446 102.545C52.1688 102.762 51.9521 103.033 51.7961 103.358L51.5454 103.881C51.3316 104.326 51.2272 104.741 51.2323 105.125C51.2411 105.507 51.3451 105.845 51.5443 106.139C51.7448 106.431 52.0282 106.664 52.3945 106.84C52.6327 106.954 52.8638 107.024 53.0879 107.05C53.3157 107.074 53.5326 107.052 53.7386 106.984C53.9459 106.913 54.1371 106.794 54.3122 106.626L55.0703 107.292C54.8355 107.545 54.5552 107.732 54.2294 107.853C53.9048 107.971 53.5523 108.016 53.1719 107.988C52.7927 107.958 52.4033 107.846 52.0037 107.655ZM62.8262 103.015L63.9635 103.561L63.5045 111.375L63.5968 111.42L69.404 106.171L70.5413 106.716L66.7669 114.585L65.8755 114.157L68.7432 108.179L68.6663 108.142L63.3396 112.941L62.479 112.528L62.8876 105.37L62.8108 105.333L59.9431 111.312L59.0517 110.884L62.8262 103.015ZM70.9699 116.752C70.4012 116.479 69.9709 116.119 69.6789 115.67C69.3907 115.22 69.2439 114.714 69.2386 114.154C69.237 113.593 69.3812 113.009 69.6711 112.405C69.9611 111.8 70.3268 111.321 70.7682 110.965C71.2135 110.608 71.6967 110.396 72.2178 110.328C72.7427 110.258 73.2715 110.351 73.8043 110.607C74.1117 110.754 74.3907 110.951 74.6412 111.197C74.8918 111.443 75.0847 111.741 75.22 112.089C75.3566 112.435 75.4075 112.831 75.3729 113.278C75.3383 113.724 75.1889 114.223 74.9248 114.774L74.7405 115.158L70.1913 112.976L70.5673 112.192L74.1943 113.932C74.354 113.599 74.43 113.27 74.4221 112.945C74.4168 112.621 74.3287 112.325 74.1578 112.057C73.9896 111.79 73.7415 111.578 73.4136 111.421C73.0524 111.248 72.6969 111.188 72.3471 111.24C72.0011 111.292 71.6894 111.426 71.4121 111.643C71.1349 111.859 70.9182 112.13 70.7622 112.456L70.5115 112.978C70.2977 113.424 70.1934 113.839 70.1984 114.222C70.2072 114.605 70.3112 114.943 70.5104 115.237C70.7109 115.528 70.9943 115.762 71.3606 115.938C71.5988 116.052 71.8299 116.122 72.054 116.147C72.2818 116.172 72.4988 116.15 72.7048 116.081C72.912 116.011 73.1032 115.891 73.2783 115.723L74.0364 116.389C73.8016 116.642 73.5213 116.829 73.1955 116.95C72.8709 117.069 72.5184 117.114 72.138 117.086C71.7588 117.055 71.3695 116.944 70.9699 116.752Z" fill="white"/>
<rect width="54.3388" height="38.0372" transform="matrix(0.866025 0.5 -0.866025 0.5 68.9411 0)" fill="#4974D2"/>
<rect width="54.3388" height="43.4711" rx="2" transform="matrix(0.866025 0.5 0 1 36 19.0186)" fill="#5B5C60" stroke="#4F72EC"/>
<rect width="38.0372" height="43.4711" transform="matrix(0.866025 -0.5 0 1 83.0588 46.188)" fill="#31539D"/>
</svg>
