<svg width="56" height="56" viewBox="0 0 56 56" fill="none" xmlns="http://www.w3.org/2000/svg">
<g clip-path="url(#clip0_63_254)">
<path d="M7 11.6667C7 10.429 7.49167 9.242 8.36683 8.36683C9.242 7.49167 10.429 7 11.6667 7H44.3333C45.571 7 46.758 7.49167 47.6332 8.36683C48.5083 9.242 49 10.429 49 11.6667V44.3333C49 45.571 48.5083 46.758 47.6332 47.6332C46.758 48.5083 45.571 49 44.3333 49H11.6667C10.429 49 9.242 48.5083 8.36683 47.6332C7.49167 46.758 7 45.571 7 44.3333V11.6667Z" stroke="black" stroke-width="2" stroke-linecap="round" stroke-linejoin="round"/>
<path d="M19.8334 18.6666C20.4777 18.6666 21 18.1443 21 17.5C21 16.8556 20.4777 16.3333 19.8334 16.3333C19.189 16.3333 18.6667 16.8556 18.6667 17.5C18.6667 18.1443 19.189 18.6666 19.8334 18.6666Z" fill="black" stroke="black" stroke-width="2.75" stroke-linecap="round" stroke-linejoin="round"/>
<path d="M36.1667 18.6666C36.811 18.6666 37.3333 18.1443 37.3333 17.5C37.3333 16.8556 36.811 16.3333 36.1667 16.3333C35.5223 16.3333 35 16.8556 35 17.5C35 18.1443 35.5223 18.6666 36.1667 18.6666Z" fill="black" stroke="black" stroke-width="2.75" stroke-linecap="round" stroke-linejoin="round"/>
<path d="M19.8334 29.1666C20.4777 29.1666 21 28.6443 21 28C21 27.3556 20.4777 26.8333 19.8334 26.8333C19.189 26.8333 18.6667 27.3556 18.6667 28C18.6667 28.6443 19.189 29.1666 19.8334 29.1666Z" fill="black" stroke="black" stroke-width="2.75" stroke-linecap="round" stroke-linejoin="round"/>
<path d="M36.1667 29.1666C36.811 29.1666 37.3333 28.6443 37.3333 28C37.3333 27.3556 36.811 26.8333 36.1667 26.8333C35.5223 26.8333 35 27.3556 35 28C35 28.6443 35.5223 29.1666 36.1667 29.1666Z" fill="black" stroke="black" stroke-width="2.75" stroke-linecap="round" stroke-linejoin="round"/>
<path d="M36.1667 39.6666C36.811 39.6666 37.3333 39.1443 37.3333 38.5C37.3333 37.8556 36.811 37.3333 36.1667 37.3333C35.5223 37.3333 35 37.8556 35 38.5C35 39.1443 35.5223 39.6666 36.1667 39.6666Z" fill="black" stroke="black" stroke-width="2.75" stroke-linecap="round" stroke-linejoin="round"/>
<path d="M19.8334 39.6666C20.4777 39.6666 21 39.1443 21 38.5C21 37.8556 20.4777 37.3333 19.8334 37.3333C19.189 37.3333 18.6667 37.8556 18.6667 38.5C18.6667 39.1443 19.189 39.6666 19.8334 39.6666Z" fill="black" stroke="black" stroke-width="2.75" stroke-linecap="round" stroke-linejoin="round"/>
</g>
<defs>
<clipPath id="clip0_63_254">
<rect width="56" height="56" fill="white"/>
</clipPath>
</defs>
</svg>
